<?xml version="1.0" encoding="utf-8"?>
<!DOCTYPE svg PUBLIC "-//W3C//DTD SVG 1.1//EN" "http://www.w3.org/Graphics/SVG/1.1/DTD/svg11.dtd">
<svg version="1.1" id="Layer_1" xmlns="http://www.w3.org/2000/svg" xmlns:xlink="http://www.w3.org/1999/xlink" x="0px" y="0px"
	 width="240px" height="73px" viewBox="0 0 240 73" enable-background="new 0 0 240 73" xml:space="preserve">
<g>
	<path fill="#6D6D6D" d="M74.678,60.891h2.45c0.887,0,1.582,0.17,2.086,0.51c0.504,0.342,0.756,0.848,0.756,1.52
		c0,0.309-0.059,0.59-0.175,0.848c-0.117,0.256-0.273,0.482-0.469,0.678c-0.196,0.197-0.416,0.359-0.658,0.49
		s-0.49,0.225-0.742,0.279l-0.014,0.057c0.476,0.111,0.877,0.32,1.204,0.623c0.326,0.303,0.49,0.717,0.49,1.238
		c0,0.514-0.096,0.955-0.287,1.324s-0.459,0.672-0.805,0.91c-0.346,0.238-0.751,0.414-1.218,0.531s-0.971,0.176-1.512,0.176h-2.94
		L74.678,60.891z M75.686,69.221c0.877,0,1.573-0.16,2.086-0.477c0.513-0.318,0.77-0.836,0.77-1.555c0-0.467-0.18-0.842-0.539-1.127
		s-0.88-0.428-1.561-0.428h-1.624l-0.728,3.586H75.686z M76.288,64.838c0.877,0,1.526-0.164,1.946-0.49s0.63-0.752,0.63-1.273
		c0-0.42-0.159-0.748-0.476-0.98c-0.317-0.232-0.826-0.35-1.526-0.35h-1.274l-0.616,3.094H76.288z"/>
	<path fill="#6D6D6D" d="M80.306,72.131c0.345,0,0.67-0.139,0.973-0.42c0.303-0.279,0.572-0.656,0.805-1.133l0.252-0.49
		l-1.162-6.818h1.064l0.532,3.822c0.046,0.309,0.088,0.643,0.126,1c0.037,0.359,0.07,0.703,0.098,1.029h0.056
		c0.159-0.326,0.324-0.664,0.497-1.014c0.172-0.352,0.343-0.689,0.511-1.016l1.96-3.822h1.064l-4.004,7.379
		c-0.177,0.336-0.364,0.645-0.56,0.93c-0.196,0.285-0.409,0.533-0.637,0.742c-0.229,0.211-0.479,0.377-0.749,0.498
		C80.861,72.94,80.562,73,80.236,73c-0.103,0-0.226-0.014-0.371-0.043c-0.145-0.027-0.282-0.078-0.413-0.152l0.35-0.799
		C79.97,72.09,80.138,72.131,80.306,72.131z"/>
	<path fill="#6D6D6D" d="M91.604,60.891h5.068l-0.182,0.908H92.5l-0.63,3.193h3.374l-0.182,0.924h-3.36l-0.84,4.158H89.77
		L91.604,60.891z"/>
	<path fill="#6D6D6D" d="M96.28,67.401c0-0.645,0.107-1.23,0.322-1.758s0.492-0.98,0.833-1.357c0.341-0.379,0.728-0.67,1.162-0.875
		s0.875-0.309,1.323-0.309c0.382,0,0.707,0.062,0.973,0.189c0.266,0.125,0.483,0.299,0.651,0.518
		c0.168,0.219,0.289,0.48,0.364,0.783c0.075,0.305,0.112,0.629,0.112,0.975c0,0.27-0.028,0.527-0.084,0.77
		c-0.056,0.242-0.107,0.43-0.154,0.561h-4.424c-0.065,0.438-0.061,0.814,0.014,1.127s0.198,0.57,0.371,0.775
		c0.173,0.207,0.385,0.355,0.637,0.449s0.527,0.141,0.826,0.141c0.271,0,0.539-0.059,0.805-0.176s0.506-0.254,0.721-0.414
		l0.42,0.715c-0.271,0.195-0.593,0.367-0.966,0.512c-0.373,0.145-0.784,0.217-1.232,0.217c-0.812,0-1.461-0.246-1.946-0.736
		C96.522,69.018,96.28,68.315,96.28,67.401z M101.04,66.168c0.019-0.111,0.035-0.225,0.049-0.336
		c0.014-0.111,0.021-0.234,0.021-0.365c0-0.195-0.023-0.385-0.07-0.566s-0.121-0.342-0.224-0.482
		c-0.103-0.141-0.238-0.252-0.406-0.336s-0.374-0.127-0.616-0.127c-0.252,0-0.497,0.053-0.735,0.154
		c-0.238,0.104-0.459,0.252-0.665,0.449c-0.205,0.195-0.39,0.428-0.553,0.699c-0.164,0.271-0.287,0.574-0.371,0.91H101.04z"/>
	<path fill="#6D6D6D" d="M108.6,62.766l0.532-2.66h1.078l-2.016,9.969h-0.882l0.112-1.008h-0.056
		c-0.327,0.354-0.695,0.639-1.106,0.854c-0.411,0.215-0.831,0.322-1.26,0.322c-0.597,0-1.073-0.211-1.428-0.631
		c-0.355-0.42-0.532-1.031-0.532-1.834c0-0.652,0.103-1.264,0.308-1.834c0.205-0.568,0.48-1.064,0.826-1.484
		c0.345-0.42,0.737-0.75,1.176-0.994c0.438-0.242,0.896-0.363,1.372-0.363c0.364,0,0.681,0.092,0.952,0.273
		c0.271,0.182,0.49,0.422,0.658,0.721h0.042L108.6,62.766z M105.394,69.346c0.354,0,0.714-0.105,1.078-0.314
		c0.364-0.211,0.719-0.539,1.064-0.988l0.616-3.037c-0.196-0.355-0.411-0.611-0.644-0.77c-0.233-0.16-0.481-0.238-0.742-0.238
		c-0.336,0-0.663,0.1-0.98,0.301s-0.598,0.469-0.84,0.805c-0.243,0.336-0.437,0.721-0.581,1.154
		c-0.145,0.436-0.217,0.885-0.217,1.352c0,0.588,0.112,1.025,0.336,1.309C104.708,69.204,105.011,69.346,105.394,69.346z"/>
	<path fill="#6D6D6D" d="M110.503,67.401c0-0.645,0.107-1.23,0.322-1.758s0.492-0.98,0.833-1.357
		c0.341-0.379,0.728-0.67,1.162-0.875s0.875-0.309,1.323-0.309c0.382,0,0.707,0.062,0.973,0.189
		c0.266,0.125,0.483,0.299,0.651,0.518c0.168,0.219,0.289,0.48,0.364,0.783c0.075,0.305,0.112,0.629,0.112,0.975
		c0,0.27-0.028,0.527-0.084,0.77c-0.056,0.242-0.107,0.43-0.154,0.561h-4.424c-0.065,0.438-0.061,0.814,0.014,1.127
		s0.198,0.57,0.371,0.775c0.173,0.207,0.385,0.355,0.637,0.449s0.527,0.141,0.826,0.141c0.271,0,0.539-0.059,0.805-0.176
		s0.506-0.254,0.721-0.414l0.42,0.715c-0.271,0.195-0.593,0.367-0.966,0.512c-0.373,0.145-0.784,0.217-1.232,0.217
		c-0.812,0-1.461-0.246-1.946-0.736C110.746,69.018,110.503,68.315,110.503,67.401z M115.263,66.168
		c0.019-0.111,0.035-0.225,0.049-0.336c0.014-0.111,0.021-0.234,0.021-0.365c0-0.195-0.023-0.385-0.07-0.566
		s-0.121-0.342-0.224-0.482c-0.103-0.141-0.238-0.252-0.406-0.336s-0.374-0.127-0.616-0.127c-0.252,0-0.497,0.053-0.735,0.154
		c-0.238,0.104-0.459,0.252-0.665,0.449c-0.205,0.195-0.39,0.428-0.553,0.699c-0.164,0.271-0.287,0.574-0.371,0.91H115.263z"/>
	<path fill="#6D6D6D" d="M118.497,63.27h0.882l-0.154,1.303h0.056c0.271-0.42,0.585-0.771,0.945-1.051s0.749-0.42,1.168-0.42
		c0.234,0,0.449,0.043,0.645,0.127l-0.377,0.951c-0.15-0.074-0.346-0.111-0.589-0.111c-0.336,0-0.682,0.145-1.036,0.434
		s-0.677,0.713-0.966,1.273l-0.854,4.299h-1.064L118.497,63.27z"/>
	<path fill="#6D6D6D" d="M123.299,63.27h1.078l-1.371,6.805h-1.064L123.299,63.27z M124.209,61.856c-0.186,0-0.348-0.053-0.482-0.16
		s-0.203-0.264-0.203-0.469c0-0.234,0.082-0.428,0.244-0.582c0.164-0.154,0.354-0.23,0.568-0.23c0.186,0,0.348,0.057,0.482,0.168
		s0.203,0.271,0.203,0.477c0,0.232-0.082,0.424-0.246,0.572C124.613,61.782,124.424,61.856,124.209,61.856z"/>
	<path fill="#6D6D6D" d="M125.344,67.512c0-0.635,0.105-1.221,0.314-1.758c0.211-0.535,0.49-1,0.84-1.393
		c0.352-0.391,0.754-0.699,1.211-0.924s0.934-0.336,1.428-0.336c0.412,0,0.758,0.08,1.037,0.238s0.521,0.355,0.729,0.588
		l-0.631,0.672c-0.178-0.215-0.355-0.371-0.531-0.469c-0.178-0.098-0.402-0.146-0.672-0.146c-0.336,0-0.664,0.092-0.98,0.279
		c-0.318,0.188-0.6,0.436-0.848,0.75c-0.246,0.312-0.443,0.678-0.588,1.098s-0.217,0.863-0.217,1.33
		c0,0.617,0.133,1.088,0.398,1.414c0.268,0.326,0.67,0.49,1.211,0.49c0.299,0,0.572-0.061,0.82-0.182
		c0.246-0.121,0.479-0.262,0.693-0.42l0.475,0.699c-0.242,0.188-0.541,0.367-0.896,0.539c-0.354,0.174-0.783,0.26-1.287,0.26
		c-0.746,0-1.352-0.236-1.812-0.707C125.574,69.065,125.344,68.389,125.344,67.512z"/>
	<path fill="#6D6D6D" d="M133.674,70.243c-0.738,0-1.326-0.242-1.764-0.729c-0.439-0.484-0.658-1.152-0.658-2.002
		c0-0.645,0.102-1.236,0.307-1.777c0.207-0.541,0.482-1.006,0.826-1.395c0.346-0.387,0.738-0.689,1.178-0.908
		c0.438-0.221,0.891-0.33,1.357-0.33c0.736,0,1.328,0.242,1.771,0.729c0.441,0.484,0.664,1.152,0.664,2.002
		c0,0.645-0.105,1.236-0.314,1.777c-0.211,0.541-0.486,1.006-0.826,1.393c-0.342,0.389-0.732,0.691-1.176,0.91
		C134.596,70.133,134.141,70.243,133.674,70.243z M134.807,63.985c-0.307,0-0.611,0.09-0.908,0.271
		c-0.299,0.184-0.566,0.43-0.799,0.742c-0.234,0.314-0.42,0.68-0.561,1.1c-0.139,0.42-0.209,0.867-0.209,1.344
		c0,0.617,0.123,1.088,0.371,1.414c0.246,0.326,0.607,0.49,1.084,0.49c0.318,0,0.623-0.092,0.918-0.273
		c0.293-0.182,0.557-0.426,0.791-0.734c0.232-0.309,0.42-0.672,0.559-1.092c0.141-0.42,0.211-0.869,0.211-1.344
		c0-0.617-0.123-1.09-0.371-1.422C135.645,64.151,135.283,63.985,134.807,63.985z"/>
	<path fill="#6D6D6D" d="M141.752,60.891h1.105l0.377,5.096c0.047,0.504,0.09,1.008,0.127,1.512s0.07,1.008,0.098,1.512h0.057
		c0.232-0.494,0.473-0.998,0.721-1.512c0.246-0.514,0.492-1.018,0.734-1.512l2.535-5.096h1.176l-4.803,9.184h-1.303L141.752,60.891z
		"/>
	<path fill="#6D6D6D" d="M149.338,63.27h1.078l-1.371,6.805h-1.064L149.338,63.27z M150.248,61.856c-0.186,0-0.348-0.053-0.482-0.16
		s-0.203-0.264-0.203-0.469c0-0.234,0.082-0.428,0.244-0.582c0.164-0.154,0.354-0.23,0.568-0.23c0.186,0,0.348,0.057,0.482,0.168
		s0.203,0.271,0.203,0.477c0,0.232-0.082,0.424-0.246,0.572C150.652,61.782,150.463,61.856,150.248,61.856z"/>
	<path fill="#6D6D6D" d="M152.699,64.139h-0.994l0.154-0.799l1.062-0.07l0.504-1.875h0.91l-0.377,1.875h1.723l-0.168,0.869h-1.75
		l-0.799,3.891c-0.027,0.168-0.043,0.336-0.043,0.504c0,0.281,0.064,0.49,0.189,0.631c0.127,0.141,0.354,0.209,0.68,0.209
		c0.131,0,0.256-0.023,0.377-0.068c0.121-0.047,0.234-0.094,0.336-0.141l0.238,0.77c-0.158,0.074-0.346,0.145-0.559,0.211
		c-0.215,0.064-0.459,0.098-0.729,0.098c-0.299,0-0.551-0.041-0.756-0.119c-0.205-0.08-0.373-0.188-0.504-0.322
		s-0.225-0.295-0.281-0.477c-0.055-0.182-0.084-0.379-0.084-0.594c0-0.141,0.008-0.27,0.021-0.385
		c0.014-0.117,0.031-0.24,0.049-0.371L152.699,64.139z"/>
	<path fill="#6D6D6D" d="M157.207,63.27h1.078l-1.373,6.805h-1.064L157.207,63.27z M158.117,61.856c-0.188,0-0.348-0.053-0.484-0.16
		c-0.135-0.107-0.203-0.264-0.203-0.469c0-0.234,0.082-0.428,0.246-0.582c0.162-0.154,0.352-0.23,0.566-0.23
		c0.188,0,0.348,0.057,0.482,0.168c0.137,0.111,0.203,0.271,0.203,0.477c0,0.232-0.08,0.424-0.244,0.572
		C158.52,61.782,158.332,61.856,158.117,61.856z"/>
	<path fill="#6D6D6D" d="M159.25,67.512c0-0.635,0.105-1.221,0.316-1.758c0.209-0.535,0.49-1,0.84-1.393
		c0.35-0.391,0.754-0.699,1.211-0.924s0.934-0.336,1.428-0.336c0.41,0,0.756,0.08,1.035,0.238c0.281,0.158,0.523,0.355,0.729,0.588
		L164.18,64.6c-0.178-0.215-0.355-0.371-0.533-0.469s-0.4-0.146-0.672-0.146c-0.336,0-0.662,0.092-0.98,0.279
		c-0.316,0.188-0.6,0.436-0.846,0.75c-0.248,0.312-0.443,0.678-0.588,1.098s-0.217,0.863-0.217,1.33
		c0,0.617,0.133,1.088,0.398,1.414s0.67,0.49,1.211,0.49c0.299,0,0.572-0.061,0.818-0.182c0.248-0.121,0.479-0.262,0.693-0.42
		l0.477,0.699c-0.244,0.188-0.541,0.367-0.896,0.539c-0.355,0.174-0.783,0.26-1.287,0.26c-0.748,0-1.352-0.236-1.814-0.707
		C159.482,69.065,159.25,68.389,159.25,67.512z"/>
	<path fill="#6D6D6D" d="M165.131,67.512c0-0.635,0.105-1.221,0.314-1.758c0.211-0.535,0.49-1,0.84-1.393
		c0.352-0.391,0.754-0.699,1.211-0.924s0.934-0.336,1.428-0.336c0.412,0,0.758,0.08,1.037,0.238s0.521,0.355,0.729,0.588
		l-0.631,0.672c-0.178-0.215-0.355-0.371-0.531-0.469c-0.178-0.098-0.402-0.146-0.672-0.146c-0.336,0-0.664,0.092-0.98,0.279
		c-0.318,0.188-0.6,0.436-0.848,0.75c-0.246,0.312-0.443,0.678-0.588,1.098s-0.217,0.863-0.217,1.33
		c0,0.617,0.133,1.088,0.398,1.414c0.268,0.326,0.67,0.49,1.211,0.49c0.299,0,0.572-0.061,0.82-0.182
		c0.246-0.121,0.479-0.262,0.693-0.42l0.475,0.699c-0.242,0.188-0.541,0.367-0.896,0.539c-0.354,0.174-0.783,0.26-1.287,0.26
		c-0.746,0-1.352-0.236-1.812-0.707C165.361,69.065,165.131,68.389,165.131,67.512z"/>
	<path fill="#6D6D6D" d="M172.494,63.27h1.078l-1.371,6.805h-1.064L172.494,63.27z M173.404,61.856c-0.186,0-0.348-0.053-0.482-0.16
		s-0.203-0.264-0.203-0.469c0-0.234,0.082-0.428,0.244-0.582c0.164-0.154,0.354-0.23,0.568-0.23c0.186,0,0.348,0.057,0.482,0.168
		s0.203,0.271,0.203,0.477c0,0.232-0.082,0.424-0.246,0.572C173.809,61.782,173.619,61.856,173.404,61.856z"/>
	<path fill="#6D6D6D" d="M184.828,65.147c-0.289,0.615-0.611,1.211-0.965,1.785c-0.355,0.572-0.756,1.104-1.205,1.588
		c0.514,0.41,0.99,0.695,1.428,0.854l-0.447,0.869c-0.57-0.188-1.145-0.527-1.723-1.021c-0.391,0.316-0.811,0.566-1.26,0.748
		c-0.447,0.182-0.924,0.273-1.428,0.273c-0.699,0-1.26-0.193-1.68-0.582c-0.42-0.387-0.631-0.906-0.631-1.561
		c0-0.373,0.066-0.711,0.197-1.016c0.129-0.303,0.303-0.58,0.518-0.832s0.461-0.479,0.742-0.68c0.279-0.199,0.568-0.395,0.867-0.58
		c-0.168-0.541-0.252-1.068-0.252-1.582c0-0.393,0.066-0.752,0.195-1.078c0.131-0.326,0.307-0.609,0.525-0.848
		c0.221-0.238,0.475-0.424,0.764-0.561c0.289-0.135,0.598-0.201,0.924-0.201c0.504,0,0.883,0.141,1.135,0.426
		s0.377,0.643,0.377,1.072c0,0.354-0.074,0.676-0.225,0.965c-0.148,0.289-0.344,0.559-0.588,0.805
		c-0.242,0.248-0.518,0.477-0.824,0.686c-0.309,0.211-0.621,0.414-0.939,0.609c0.197,0.496,0.443,0.971,0.742,1.428
		c0.299,0.459,0.625,0.873,0.98,1.246c0.383-0.4,0.717-0.834,1-1.301c0.285-0.467,0.549-0.971,0.791-1.512H184.828z M177.982,67.959
		c0,0.43,0.133,0.775,0.398,1.037c0.268,0.262,0.613,0.393,1.043,0.393c0.328,0,0.652-0.066,0.975-0.197
		c0.32-0.131,0.631-0.312,0.93-0.545c-0.363-0.402-0.699-0.844-1.008-1.324s-0.568-0.982-0.783-1.504
		c-0.439,0.299-0.809,0.615-1.107,0.951S177.982,67.502,177.982,67.959z M179.914,63.354c0,0.355,0.051,0.738,0.154,1.148
		c0.262-0.158,0.512-0.318,0.75-0.477c0.236-0.158,0.445-0.326,0.623-0.504c0.176-0.178,0.318-0.369,0.426-0.574
		s0.162-0.434,0.162-0.686c0-0.215-0.057-0.398-0.168-0.553c-0.113-0.154-0.291-0.23-0.533-0.23c-0.195,0-0.381,0.047-0.553,0.139
		c-0.172,0.094-0.322,0.225-0.447,0.393c-0.127,0.168-0.227,0.367-0.301,0.596C179.951,62.834,179.914,63.084,179.914,63.354z"/>
	<path fill="#6D6D6D" d="M189.867,60.891h5.068l-0.182,0.908h-3.99l-0.631,3.193h3.375l-0.182,0.924h-3.361l-0.84,4.158h-1.092
		L189.867,60.891z"/>
	<path fill="#6D6D6D" d="M195.664,63.27h0.883l-0.154,1.303h0.055c0.271-0.42,0.586-0.771,0.945-1.051s0.75-0.42,1.17-0.42
		c0.232,0,0.447,0.043,0.645,0.127l-0.379,0.951c-0.148-0.074-0.346-0.111-0.588-0.111c-0.336,0-0.682,0.145-1.035,0.434
		c-0.355,0.289-0.678,0.713-0.967,1.273l-0.854,4.299h-1.064L195.664,63.27z"/>
	<path fill="#6D6D6D" d="M200.465,63.27h1.078l-1.371,6.805h-1.064L200.465,63.27z M201.375,61.856c-0.186,0-0.348-0.053-0.482-0.16
		s-0.203-0.264-0.203-0.469c0-0.234,0.082-0.428,0.244-0.582c0.164-0.154,0.354-0.23,0.568-0.23c0.186,0,0.348,0.057,0.482,0.168
		s0.203,0.271,0.203,0.477c0,0.232-0.082,0.424-0.246,0.572C201.779,61.782,201.59,61.856,201.375,61.856z"/>
	<path fill="#6D6D6D" d="M202.51,67.401c0-0.645,0.107-1.23,0.322-1.758s0.492-0.98,0.832-1.357c0.342-0.379,0.729-0.67,1.162-0.875
		s0.875-0.309,1.324-0.309c0.383,0,0.707,0.062,0.973,0.189c0.266,0.125,0.482,0.299,0.65,0.518s0.289,0.48,0.365,0.783
		c0.074,0.305,0.111,0.629,0.111,0.975c0,0.27-0.027,0.527-0.084,0.77s-0.107,0.43-0.154,0.561h-4.424
		c-0.066,0.438-0.061,0.814,0.014,1.127s0.199,0.57,0.371,0.775c0.172,0.207,0.385,0.355,0.637,0.449s0.527,0.141,0.826,0.141
		c0.271,0,0.539-0.059,0.805-0.176s0.506-0.254,0.721-0.414l0.42,0.715c-0.27,0.195-0.592,0.367-0.965,0.512
		s-0.785,0.217-1.232,0.217c-0.812,0-1.461-0.246-1.945-0.736C202.752,69.018,202.51,68.315,202.51,67.401z M207.27,66.168
		c0.02-0.111,0.035-0.225,0.049-0.336s0.021-0.234,0.021-0.365c0-0.195-0.023-0.385-0.07-0.566s-0.121-0.342-0.225-0.482
		c-0.102-0.141-0.236-0.252-0.404-0.336s-0.375-0.127-0.617-0.127c-0.252,0-0.496,0.053-0.734,0.154
		c-0.238,0.104-0.461,0.252-0.666,0.449c-0.205,0.195-0.389,0.428-0.553,0.699c-0.162,0.271-0.287,0.574-0.371,0.91H207.27z"/>
	<path fill="#6D6D6D" d="M210.504,63.27h0.883l-0.1,1.021h0.057c0.393-0.336,0.779-0.617,1.162-0.846s0.789-0.344,1.219-0.344
		c0.578,0,0.99,0.15,1.238,0.447c0.248,0.299,0.371,0.715,0.371,1.246c0,0.16-0.008,0.309-0.021,0.449
		c-0.014,0.139-0.043,0.303-0.09,0.49l-0.869,4.34h-1.062l0.84-4.201c0.037-0.186,0.064-0.336,0.084-0.447
		c0.018-0.111,0.027-0.229,0.027-0.35c0-0.346-0.08-0.607-0.238-0.785c-0.158-0.176-0.416-0.266-0.77-0.266
		c-0.271,0-0.572,0.098-0.902,0.295c-0.332,0.195-0.713,0.508-1.143,0.938l-0.965,4.816h-1.064L210.504,63.27z"/>
	<path fill="#6D6D6D" d="M222.18,62.766l0.531-2.66h1.078l-2.016,9.969h-0.881l0.111-1.008h-0.057
		c-0.326,0.354-0.695,0.639-1.105,0.854s-0.83,0.322-1.26,0.322c-0.598,0-1.074-0.211-1.428-0.631
		c-0.355-0.42-0.533-1.031-0.533-1.834c0-0.652,0.104-1.264,0.309-1.834c0.205-0.568,0.48-1.064,0.826-1.484s0.736-0.75,1.176-0.994
		c0.439-0.242,0.896-0.363,1.371-0.363c0.365,0,0.682,0.092,0.953,0.273c0.27,0.182,0.49,0.422,0.658,0.721h0.041L222.18,62.766z
		 M218.975,69.346c0.354,0,0.713-0.105,1.076-0.314c0.365-0.211,0.719-0.539,1.064-0.988l0.617-3.037
		c-0.197-0.355-0.412-0.611-0.645-0.77c-0.234-0.16-0.48-0.238-0.742-0.238c-0.336,0-0.662,0.1-0.98,0.301
		c-0.316,0.201-0.598,0.469-0.84,0.805s-0.436,0.721-0.58,1.154c-0.145,0.436-0.217,0.885-0.217,1.352
		c0,0.588,0.111,1.025,0.336,1.309C218.287,69.204,218.592,69.346,218.975,69.346z"/>
	<path fill="#6D6D6D" d="M224.182,68.422c0.215,0.299,0.471,0.539,0.77,0.721s0.625,0.273,0.98,0.273
		c0.195,0,0.381-0.031,0.553-0.092c0.174-0.061,0.326-0.143,0.463-0.244c0.135-0.104,0.24-0.223,0.314-0.357
		s0.111-0.281,0.111-0.441c0-0.121-0.02-0.232-0.062-0.336c-0.041-0.102-0.109-0.203-0.203-0.301s-0.221-0.197-0.385-0.301
		s-0.361-0.219-0.596-0.35c-0.531-0.289-0.924-0.574-1.176-0.854c-0.252-0.281-0.377-0.617-0.377-1.01
		c0-0.297,0.062-0.572,0.189-0.824c0.125-0.252,0.293-0.467,0.504-0.645c0.209-0.178,0.457-0.314,0.742-0.414
		c0.283-0.098,0.584-0.146,0.902-0.146c0.42,0,0.795,0.084,1.127,0.252c0.33,0.168,0.623,0.387,0.875,0.658l-0.615,0.602
		c-0.188-0.186-0.393-0.346-0.617-0.475c-0.225-0.131-0.49-0.197-0.797-0.197c-0.365,0-0.67,0.105-0.918,0.314
		c-0.248,0.211-0.371,0.461-0.371,0.75c0,0.141,0.033,0.266,0.098,0.377c0.066,0.113,0.154,0.215,0.266,0.309
		c0.113,0.094,0.24,0.182,0.387,0.266c0.145,0.084,0.295,0.168,0.455,0.252c0.307,0.168,0.561,0.33,0.762,0.484
		s0.365,0.307,0.49,0.461c0.127,0.154,0.215,0.311,0.266,0.469c0.051,0.16,0.078,0.332,0.078,0.52c0,0.316-0.064,0.605-0.189,0.867
		c-0.127,0.262-0.303,0.482-0.531,0.664c-0.23,0.184-0.5,0.322-0.812,0.422c-0.312,0.098-0.65,0.146-1.016,0.146
		c-0.225,0-0.449-0.033-0.68-0.098c-0.229-0.066-0.447-0.156-0.656-0.273c-0.211-0.117-0.402-0.254-0.574-0.414
		c-0.174-0.158-0.316-0.326-0.428-0.504L224.182,68.422z"/>
</g>
<g>
	<path fill="#B00A0F" d="M89.029,43.202V29.144l-4.445,14.058h-3.192l-4.369-14.02v14.02h-4.179V16.606h4.179l5.965,17.59
		l6.041-17.59h4.179v26.596H89.029z"/>
	<path fill="#B00A0F" d="M112.97,43.202c-6.042,0.57-14.628,1.709-14.628-6.422v-3.152c0-2.735,1.064-4.293,2.622-5.053
		c2.698-1.33,6.497-0.114,7.827,0.608c0-2.09-2.166-2.432-4.065-2.432l0.342-2.888c7.903,0,7.903,4.37,7.903,8.017V43.202z
		 M108.79,33.627c-1.406-0.988-6.231-2.735-6.231,0.531v2.09c0,2.469,1.634,4.064,6.231,3.268V33.627z"/>
	<path fill="#B00A0F" d="M129.765,42.973c-2.698,0.723-5.661,0.875-7.979,0.152c-3-0.988-4.254-2.926-4.254-6.764v-4.863
		c0-7.408,6.268-9.194,12.158-6.458l-1.14,3.609c-4.521-1.786-6.84,0.038-6.84,2.622v5.507c0,3.648,5.586,2.66,6.916,2.09
		L129.765,42.973z"/>
	<path fill="#B00A0F" d="M137.746,35.793c0.227,2.203,1.861,3.723,4.445,3.723c3.419,0,4.521-2.014,4.521-3.305
		c0-7.447-12.804-4.826-12.804-13.412c0-3.192,2.697-6.573,8.586-6.573c2.622,0,4.027,0.418,5.548,1.14
		c0,0.038-0.874,2.584-1.33,3.952c-1.405-0.456-2.546-0.836-4.179-0.836c-3.078,0-4.256,1.254-4.104,2.698
		c0.418,3.686,12.88,3.571,12.88,12.651c0,4.141-2.584,7.789-9.081,7.789c-5.889,0-8.853-3.799-8.967-7.182L137.746,35.793z"/>
	<path fill="#B00A0F" d="M161.229,43.696c-4.521-0.076-5.775-2.547-5.775-5.51v-21.58h4.256v7.561h3.609l-0.912,3.914h-2.697v10.105
		c0,1.861,1.254,2.166,2.773,2.166L161.229,43.696z"/>
	<path fill="#B00A0F" d="M180.684,36.211c0,3.875-2.014,7.369-7.029,7.369c-4.978,0-7.143-3.494-7.143-7.369v-5.015
		c0-4.788,2.545-7.447,7.143-7.447c4.407,0,7.029,2.85,7.029,7.447V36.211z M176.542,31.196c0-3.078-1.786-3.23-2.888-3.23
		c-1.292,0-2.963,0.456-2.963,3.23v5.394c0,2.203,1.405,2.887,2.963,2.887s2.888-0.834,2.888-2.887V31.196z"/>
	<path fill="#B00A0F" d="M185.511,43.202V24.167h3.876l0.303,0.152c2.66-0.912,4.445-0.418,6.459,0l-0.987,4.065
		c-2.546-1.292-5.472-0.076-5.472,2.584v12.233H185.511z"/>
	<path fill="#B00A0F" d="M199.418,18.43c0-1.178,1.064-2.204,2.279-2.204c1.178,0,2.204,1.026,2.204,2.204
		c0,1.216-1.026,2.28-2.204,2.28C200.482,20.709,199.418,19.646,199.418,18.43z M199.494,43.202V24.167h4.18v19.035H199.494z"/>
	<path fill="#B00A0F" d="M212.869,36.477v1.062c0,2.471,2.395,3.154,6.991,0.723l1.521,3.609c-1.787,1.102-4.104,1.748-6.27,1.785
		c-3.762,0.115-6.459-1.596-6.459-5.547v-7.788c0-4.18,2.85-6.497,6.99-6.497c4.218,0,6.688,2.394,6.688,6.383v5.775L212.869,36.477
		z M218.113,30.284c0-1.596-1.178-2.356-2.508-2.356c-2.128,0-2.736,1.482-2.736,2.432v2.279l5.244-0.341V30.284z"/>
	<path fill="#B00A0F" d="M230.121,37.958c0,0.686,0.684,1.9,2.85,1.9c1.823,0,2.621-1.102,2.621-2.09
		c0-3.988-8.549-1.861-9.194-8.434c-0.228-2.394,1.481-5.623,6.497-5.623c2.697,0,4.256,1.102,4.256,1.102l-1.217,3.875
		c0,0-0.873-0.874-3.039-0.874c-2.355,0-2.09,1.14-1.977,1.596c0.494,2.204,9.082,1.595,9.082,8.434c0,2.963-2.09,5.928-7.029,5.928
		c-4.521,0-6.916-2.547-7.029-5.396L230.121,37.958z"/>
</g>
<path fill="#B00A0F" d="M30,0C13.432,0,0,13.432,0,30C0,46.569,13.432,60,30,60C46.569,60,60,46.569,60,30C60,13.432,46.569,0,30,0z
	 M44,48.5c0,0.276-0.224,0.5-0.5,0.5c0,0-12-8-13.5-8s-13.5,8-13.5,8c-0.276,0-0.5-0.224-0.5-0.5v-37c0-0.276,0.224-0.5,0.5-0.5h27
	c0.276,0,0.5,0.224,0.5,0.5V48.5z"/>
</svg>
